<svg width="476" height="512" viewBox="0 0 476 512" fill="none" xmlns="http://www.w3.org/2000/svg">
<path d="M464.513 83.942C457.288 76.709 448.716 73.092 438.819 73.092H402.278V45.682C402.278 33.122 397.801 22.367 388.856 13.421C379.906 4.475 369.157 0 356.591 0H338.323C325.758 0 315.005 4.475 306.059 13.422C297.11 22.367 292.637 33.123 292.637 45.683V73.093H183.007V45.683C183.007 33.123 178.532 22.368 169.585 13.422C160.64 4.475 149.886 0 137.321 0H119.05C106.488 0 95.733 4.475 86.786 13.422C77.841 22.367 73.365 33.123 73.365 45.683V73.093H36.823C26.923 73.093 18.359 76.71 11.126 83.943C3.893 91.175 0.276001 99.743 0.276001 109.64V475.093C0.276001 484.983 3.893 493.549 11.126 500.786C18.358 508.017 26.922 511.635 36.823 511.635H438.812C448.709 511.635 457.282 508.018 464.506 500.786C471.74 493.552 475.358 484.982 475.358 475.093V109.639C475.357 99.739 471.743 91.175 464.513 83.942ZM329.187 45.686C329.187 43.019 330.036 40.828 331.747 39.119C333.458 37.408 335.648 36.551 338.317 36.551H356.585C359.255 36.551 361.438 37.405 363.155 39.119C364.867 40.831 365.722 43.022 365.722 45.686V127.91C365.722 130.576 364.867 132.763 363.155 134.477C361.437 136.186 359.255 137.045 356.585 137.045H338.317C335.648 137.045 333.458 136.19 331.747 134.477C330.036 132.762 329.187 130.576 329.187 127.91V45.686ZM109.915 45.686C109.915 43.019 110.77 40.828 112.483 39.119C114.197 37.408 116.384 36.551 119.05 36.551H137.321C139.988 36.551 142.179 37.405 143.888 39.119C145.599 40.831 146.458 43.022 146.458 45.686V127.91C146.458 130.576 145.603 132.766 143.888 134.477C142.175 136.186 139.988 137.045 137.321 137.045H119.05C116.384 137.045 114.194 136.19 112.483 134.477C110.774 132.762 109.915 130.576 109.915 127.91V45.686ZM438.812 475.088H36.823V182.728H438.812V475.088V475.088Z" fill="#E4E4E4"/>
</svg>
