<svg width="293" height="439" viewBox="0 0 293 439" fill="none" xmlns="http://www.w3.org/2000/svg">
<path d="M249.621 42.825C221.073 14.272 186.619 0 146.268 0C105.915 0 71.465 14.275 42.915 42.825C14.366 71.374 0.0899658 105.825 0.0899658 146.178C0.0899658 166.927 3.22997 183.96 9.50897 197.284L113.719 418.27C116.575 424.546 121.002 429.495 126.997 433.108C132.993 436.725 139.416 438.536 146.27 438.536C153.122 438.536 159.548 436.725 165.543 433.108C171.539 429.495 176.056 424.546 179.102 418.27L283.02 197.284C289.302 183.96 292.444 166.926 292.444 146.178C292.449 105.825 278.176 71.378 249.621 42.825ZM197.942 197.855C183.669 212.127 166.445 219.266 146.268 219.266C126.091 219.266 108.867 212.127 94.59 197.855C80.315 183.578 73.176 166.354 73.176 146.177C73.176 126.002 80.315 108.775 94.59 94.502C108.867 80.227 126.094 73.088 146.268 73.088C166.445 73.088 183.669 80.227 197.942 94.502C212.216 108.774 219.355 126.002 219.355 146.177C219.355 166.352 212.217 183.575 197.942 197.855Z" fill="#E4E4E4"/>
</svg>
