<svg width="256" height="40" viewBox="0 0 256 40" fill="none" xmlns="http://www.w3.org/2000/svg">
<path d="M20 12.5C15.8672 12.5 12.5 15.8672 12.5 20C12.5 24.1328 15.8672 27.5 20 27.5C24.1328 27.5 27.5 24.1328 27.5 20C27.5 15.8672 24.1328 12.5 20 12.5ZM39.25 18.7891L31.8516 15.0938L34.4688 7.25C34.8203 6.1875 33.8125 5.17969 32.7578 5.53906L24.9141 8.15625L21.2109 0.75C20.7109 -0.25 19.2891 -0.25 18.7891 0.75L15.0938 8.14844L7.24219 5.53125C6.17969 5.17969 5.17188 6.1875 5.53125 7.24219L8.14844 15.0859L0.75 18.7891C-0.25 19.2891 -0.25 20.7109 0.75 21.2109L8.14844 24.9062L5.53125 32.7578C5.17969 33.8203 6.1875 34.8281 7.24219 34.4688L15.0859 31.8516L18.7812 39.25C19.2812 40.25 20.7031 40.25 21.2031 39.25L24.8984 31.8516L32.7422 34.4688C33.8047 34.8203 34.8125 33.8125 34.4531 32.7578L31.8359 24.9141L39.2344 21.2188C40.25 20.7109 40.25 19.2891 39.25 18.7891ZM27.0703 27.0703C23.1719 30.9688 16.8281 30.9688 12.9297 27.0703C9.03125 23.1719 9.03125 16.8281 12.9297 12.9297C16.8281 9.03125 23.1719 9.03125 27.0703 12.9297C30.9688 16.8281 30.9688 23.1719 27.0703 27.0703Z" fill="white"/>
<path d="M70.5811 27.5741H65.835V20.1339H57.1338V27.5741H52.4023V9.30485H57.1338V16.5922H65.835V9.30485H70.5811V27.5741Z" fill="white"/>
<path d="M87.4268 27.5741H83.0469V25.7013H82.9883C81.9824 27.1622 80.4932 27.8926 78.5205 27.8926C77.0654 27.8926 75.918 27.5359 75.0781 26.8224C74.248 26.1005 73.833 25.1407 73.833 23.9432C73.833 21.4121 75.5566 19.9513 79.0039 19.5606L83.0762 19.0892C83.0762 17.6623 82.1875 16.9489 80.4102 16.9489C78.623 16.9489 76.9238 17.4118 75.3125 18.3376V15.3054C75.957 15.0166 76.8359 14.7618 77.9492 14.541C79.0723 14.3202 80.0928 14.2098 81.0107 14.2098C85.2881 14.2098 87.4268 16.0656 87.4268 19.7772V27.5741ZM83.0762 22.2742V21.3952L80.3516 21.7009C78.8477 21.8708 78.0957 22.4611 78.0957 23.4718C78.0957 23.9304 78.2764 24.3084 78.6377 24.6057C79.0088 24.8944 79.5068 25.0388 80.1318 25.0388C81.001 25.0388 81.709 24.7798 82.2559 24.2617C82.8027 23.7351 83.0762 23.0726 83.0762 22.2742Z" fill="white"/>
<path d="M95.7764 26.058H95.7178V33.5747H91.0889V14.5283H95.7178V16.4902H95.7764C96.9189 14.9699 98.5254 14.2098 100.596 14.2098C102.539 14.2098 104.038 14.7916 105.093 15.9552C106.157 17.1103 106.689 18.6858 106.689 20.6817C106.689 22.856 106.069 24.6014 104.829 25.9179C103.599 27.2344 101.958 27.8926 99.9072 27.8926C98.1006 27.8926 96.7236 27.2811 95.7764 26.058ZM95.6445 20.7072V21.7519C95.6445 22.6522 95.918 23.3869 96.4648 23.9559C97.0117 24.525 97.7295 24.8095 98.6182 24.8095C99.6729 24.8095 100.488 24.457 101.064 23.7521C101.65 23.0386 101.943 22.0322 101.943 20.7327C101.943 18.4395 100.918 17.2929 98.8672 17.2929C97.9199 17.2929 97.1436 17.6071 96.5381 18.2356C95.9424 18.8556 95.6445 19.6795 95.6445 20.7072Z" fill="white"/>
<path d="M114.38 26.058H114.321V33.5747H109.692V14.5283H114.321V16.4902H114.38C115.522 14.9699 117.129 14.2098 119.199 14.2098C121.143 14.2098 122.642 14.7916 123.696 15.9552C124.761 17.1103 125.293 18.6858 125.293 20.6817C125.293 22.856 124.673 24.6014 123.433 25.9179C122.202 27.2344 120.562 27.8926 118.511 27.8926C116.704 27.8926 115.327 27.2811 114.38 26.058ZM114.248 20.7072V21.7519C114.248 22.6522 114.521 23.3869 115.068 23.9559C115.615 24.525 116.333 24.8095 117.222 24.8095C118.276 24.8095 119.092 24.457 119.668 23.7521C120.254 23.0386 120.547 22.0322 120.547 20.7327C120.547 18.4395 119.521 17.2929 117.471 17.2929C116.523 17.2929 115.747 17.6071 115.142 18.2356C114.546 18.8556 114.248 19.6795 114.248 20.7072Z" fill="white"/>
<path d="M142.578 14.5283L136.484 28.6188C135.02 32.0076 132.812 33.7021 129.863 33.7021C128.74 33.7021 127.817 33.5916 127.095 33.3708V30.1603C127.71 30.4746 128.379 30.6317 129.102 30.6317C130.293 30.6317 131.123 30.1433 131.592 29.1666L132.383 27.5486L126.289 14.5283H131.416L134.214 22.4653C134.39 22.9579 134.526 23.5397 134.624 24.2107H134.683C134.771 23.7181 134.932 23.1448 135.166 22.4908L137.993 14.5283H142.578Z" fill="white"/>
<path d="M153.652 20.325C153.652 22.7711 152.998 24.6439 151.689 25.9434C150.391 27.2428 148.506 27.8926 146.035 27.8926C144.932 27.8926 143.911 27.727 142.974 27.3957V23.5355C143.784 24.0706 144.692 24.3381 145.698 24.3381C147.856 24.3381 148.936 22.9452 148.936 20.1594V9.30485H153.652V20.325Z" fill="white"/>
<path d="M164.946 27.8926C162.446 27.8926 160.479 27.2853 159.043 26.0708C157.617 24.8477 156.904 23.1915 156.904 21.1021C156.904 18.9448 157.646 17.2589 159.131 16.0443C160.615 14.8213 162.622 14.2098 165.151 14.2098C167.642 14.2098 169.595 14.8213 171.011 16.0443C172.427 17.2589 173.135 18.8684 173.135 20.8728C173.135 23.0386 172.402 24.75 170.938 26.0071C169.482 27.2641 167.485 27.8926 164.946 27.8926ZM165.063 17.2929C163.97 17.2929 163.12 17.6199 162.515 18.2739C161.909 18.9278 161.606 19.8536 161.606 21.0512C161.606 23.5567 162.769 24.8095 165.093 24.8095C167.31 24.8095 168.418 23.5228 168.418 20.9493C168.418 18.5117 167.3 17.2929 165.063 17.2929Z" fill="white"/>
<path d="M190.391 27.5741H185.776V25.5866H185.703C184.561 27.1239 183.032 27.8926 181.118 27.8926C177.642 27.8926 175.903 26.0623 175.903 22.4016V14.5283H180.518V22.0449C180.518 23.888 181.357 24.8095 183.037 24.8095C183.867 24.8095 184.531 24.5589 185.029 24.0578C185.527 23.5482 185.776 22.8603 185.776 21.9939V14.5283H190.391V27.5741Z" fill="white"/>
<path d="M204.087 18.1592C203.53 17.8959 202.881 17.7642 202.139 17.7642C201.133 17.7642 200.347 18.087 199.78 18.7325C199.214 19.3695 198.931 20.2401 198.931 21.3442V27.5741H194.302V14.5283H198.931V16.9489H198.989C199.722 15.1823 201.04 14.299 202.944 14.299C203.433 14.299 203.813 14.3499 204.087 14.4518V18.1592Z" fill="white"/>
<path d="M220.83 27.5741H216.216V20.325C216.216 18.3036 215.386 17.2929 213.726 17.2929C212.925 17.2929 212.266 17.5604 211.748 18.0955C211.23 18.6306 210.972 19.31 210.972 20.1339V27.5741H206.343V14.5283H210.972V16.5922H211.03C212.134 15.0039 213.74 14.2098 215.85 14.2098C219.17 14.2098 220.83 16.0019 220.83 19.5861V27.5741Z" fill="white"/>
<path d="M237.983 22.1978H228.198C228.354 24.0918 229.727 25.0388 232.314 25.0388C233.965 25.0388 235.415 24.6991 236.665 24.0196V26.9243C235.278 27.5698 233.477 27.8926 231.26 27.8926C228.838 27.8926 226.958 27.3108 225.62 26.1472C224.282 24.9751 223.613 23.3444 223.613 21.255C223.613 19.0892 224.336 17.3736 225.781 16.108C227.227 14.8425 229.004 14.2098 231.113 14.2098C233.301 14.2098 234.99 14.7746 236.182 15.9042C237.383 17.0338 237.983 18.5669 237.983 20.5034V22.1978ZM233.691 19.7262C233.691 17.8577 232.822 16.9234 231.084 16.9234C230.342 16.9234 229.697 17.1909 229.15 17.726C228.613 18.2611 228.286 18.9278 228.169 19.7262H233.691Z" fill="white"/>
<path d="M255.02 14.5283L248.926 28.6188C247.461 32.0076 245.254 33.7021 242.305 33.7021C241.182 33.7021 240.259 33.5916 239.536 33.3708V30.1603C240.151 30.4746 240.82 30.6317 241.543 30.6317C242.734 30.6317 243.564 30.1433 244.033 29.1666L244.824 27.5486L238.73 14.5283H243.857L246.655 22.4653C246.831 22.9579 246.968 23.5397 247.065 24.2107H247.124C247.212 23.7181 247.373 23.1448 247.607 22.4908L250.435 14.5283H255.02Z" fill="white"/>
</svg>
