<svg width="640" height="512" viewBox="0 0 640 512" fill="none" xmlns="http://www.w3.org/2000/svg">
<path d="M352 288H336V200C336 195.58 332.42 192 328 192H314.42C309.68 192 305.05 193.4 301.11 196.03L285.78 206.25C284.906 206.832 284.155 207.581 283.57 208.453C282.985 209.326 282.578 210.305 282.372 211.335C282.166 212.365 282.164 213.425 282.368 214.456C282.572 215.486 282.977 216.466 283.56 217.34L292.44 230.65C293.022 231.524 293.771 232.275 294.643 232.86C295.516 233.445 296.495 233.852 297.525 234.058C298.555 234.264 299.615 234.266 300.646 234.062C301.676 233.858 302.656 233.453 303.53 232.87L304 232.56V288H288C283.58 288 280 291.58 280 296V312C280 316.42 283.58 320 288 320H352C356.42 320 360 316.42 360 312V296C360 291.58 356.42 288 352 288ZM608 64H32C14.33 64 0 78.33 0 96V416C0 433.67 14.33 448 32 448H608C625.67 448 640 433.67 640 416V96C640 78.33 625.67 64 608 64ZM48 400V336C83.35 336 112 364.65 112 400H48ZM48 176V112H112C112 147.35 83.35 176 48 176ZM320 368C266.98 368 224 317.85 224 256C224 194.14 266.98 144 320 144C373.02 144 416 194.14 416 256C416 317.87 373 368 320 368ZM592 400H528C528 364.65 556.65 336 592 336V400ZM592 176C556.65 176 528 147.35 528 112H592V176Z" fill="#E4E4E4"/>
</svg>
