<svg width="476" height="476" viewBox="0 0 476 476" fill="none" xmlns="http://www.w3.org/2000/svg">
<g clip-path="url(#clip0_464_44)">
<path d="M475.075 186.573C475.075 179.53 469.747 175.153 459.083 173.438L315.766 152.6L251.529 22.694C247.915 14.89 243.248 10.99 237.539 10.99C231.831 10.99 227.167 14.89 223.55 22.694L159.31 152.6L15.986 173.438C5.33 175.153 0 179.53 0 186.573C0 190.572 2.38 195.14 7.139 200.279L111.063 301.347L86.51 444.096C86.129 446.762 85.94 448.671 85.94 449.808C85.94 453.805 86.938 457.182 88.936 459.944C90.933 462.71 93.929 464.086 97.928 464.086C101.356 464.086 105.161 462.949 109.348 460.663L237.536 393.277L365.733 460.663C369.737 462.949 373.543 464.086 377.149 464.086C380.968 464.086 383.864 462.71 385.862 459.944C387.854 457.186 388.853 453.805 388.853 449.808C388.853 447.337 388.757 445.434 388.566 444.096L364.011 301.347L467.648 200.279C472.604 195.33 475.075 190.76 475.075 186.573Z" fill="#E4E4E4"/>
</g>
<defs>
<clipPath id="clip0_464_44">
<rect width="475.075" height="475.075" fill="white"/>
</clipPath>
</defs>
</svg>
